<svg xmlns="http://www.w3.org/2000/svg" xmlns:xlink="http://www.w3.org/1999/xlink" viewBox="0 0 1080 1080" width="1080" height="1080" preserveAspectRatio="xMidYMid meet" style="width: 100%; height: 100%; transform: translate3d(0px, 0px, 0px); content-visibility: visible;"><defs><clipPath id="__lottie_element_65620"><rect width="1080" height="1080" x="0" y="0"></rect></clipPath><symbol id="__lottie_element_65645"><g><g transform="matrix(1,0,0,1,540,540)" opacity="1" style="display: block;"><g opacity="1" transform="matrix(1,0,0,1,-80,-33.5)"><path fill="rgb(223,216,244)" fill-opacity="1" d=" M403,-323 C403,-323 403,323 403,323 C403,323 -403,323 -403,323 C-403,323 -403,-323 -403,-323 C-403,-323 403,-323 403,-323z"></path></g></g></g></symbol><mask id="__lottie_element_65645_1" mask-type="alpha"><use xlink:href="#__lottie_element_65645"></use></mask></defs><g clip-path="url(#__lottie_element_65620)"><g transform="matrix(8.3100004196167,0,0,8.3100004196167,-564.5341796875,430.7007141113281)" opacity="1" style="display: block;"><g opacity="1" transform="matrix(1,0,0,1,0,0)"><g opacity="1" transform="matrix(1,0,0,1,0,0)"><g opacity="1" transform="matrix(1,0,0,1,0,0)"><path fill="rgb(224,216,245)" fill-opacity="1" d=" M191.75799560546875,-18.485000610351562 C191.75799560546875,-18.485000610351562 191.75799560546875,32.196998596191406 191.75799560546875,32.196998596191406 C191.75799560546875,33.86000061035156 190.16799926757812,35.20800018310547 188.20700073242188,35.20800018310547 C188.20700073242188,35.20800018310547 137.95399475097656,35.20800018310547 137.95399475097656,35.20800018310547 C135.9929962158203,35.20800018310547 134.4029998779297,33.86000061035156 134.4029998779297,32.196998596191406 C134.4029998779297,32.196998596191406 134.4029998779297,-18.409000396728516 134.4029998779297,-18.409000396728516 C134.4029998779297,-20.07200050354004 135.9929962158203,-21.420000076293945 137.95399475097656,-21.420000076293945 C137.95399475097656,-21.420000076293945 188.2469940185547,-21.420000076293945 188.2469940185547,-21.420000076293945 C190.15199279785156,-21.420000076293945 191.74600219726562,-20.132999420166016 191.75799560546875,-18.51799964904785 C191.75799560546875,-18.506999969482422 191.75799560546875,-18.496000289916992 191.75799560546875,-18.485000610351562z"></path></g></g></g><g opacity="1" transform="matrix(1,0,0,1,0,0)"><g opacity="1" transform="matrix(1,0,0,1,0,0)"><g opacity="1" transform="matrix(1,0,0,1,0,0)"><path fill="rgb(161,182,190)" fill-opacity="1" d=" M191.87399291992188,-20.115999221801758 C191.87399291992188,-20.115999221801758 191.87399291992188,-18.298999786376953 191.87399291992188,-18.298999786376953 C191.87399291992188,-18.298999786376953 134.4029998779297,-18.298999786376953 134.4029998779297,-18.298999786376953 C134.4029998779297,-18.298999786376953 134.4029998779297,-20.115999221801758 134.4029998779297,-20.115999221801758 C134.4029998779297,-22.191999435424805 136.26199340820312,-23.871999740600586 138.55799865722656,-23.871999740600586 C138.55799865722656,-23.871999740600586 187.72000122070312,-23.871999740600586 187.72000122070312,-23.871999740600586 C189.156005859375,-23.871999740600586 190.4199981689453,-23.21500015258789 191.16600036621094,-22.21500015258789 C191.61300659179688,-21.614999771118164 191.87399291992188,-20.89299964904785 191.87399291992188,-20.115999221801758z"></path></g></g></g><g opacity="1" transform="matrix(1,0,0,1,0,0)"><g opacity="1" transform="matrix(1,0,0,1,0,0)"><g opacity="1" transform="matrix(1,0,0,1,0,0)"><g opacity="1" transform="matrix(1,0,0,1,0,0)"><path fill="rgb(255,255,255)" fill-opacity="1" d=" M140.406005859375,-10.718999862670898 C140.406005859375,-10.718999862670898 146.1020050048828,-10.718999862670898 146.1020050048828,-10.718999862670898 C146.81700134277344,-10.718999862670898 147.39700317382812,-10.274999618530273 147.39700317382812,-9.72700023651123 C147.39700317382812,-9.72700023651123 147.39700317382812,-9.72700023651123 147.39700317382812,-9.72700023651123 C147.39700317382812,-9.178999900817871 146.81700134277344,-8.734000205993652 146.1020050048828,-8.734000205993652 C146.1020050048828,-8.734000205993652 140.406005859375,-8.734000205993652 140.406005859375,-8.734000205993652 C139.6909942626953,-8.734000205993652 139.11099243164062,-9.178999900817871 139.11099243164062,-9.72700023651123 C139.11099243164062,-9.72700023651123 139.11099243164062,-9.72700023651123 139.11099243164062,-9.72700023651123 C139.11099243164062,-10.274999618530273 139.6909942626953,-10.718999862670898 140.406005859375,-10.718999862670898z"></path></g></g></g><g opacity="1" transform="matrix(1,0,0,1,0,0)"><g opacity="1" transform="matrix(1,0,0,1,0,0)"><g opacity="1" transform="matrix(1,0,0,1,0,0)"><path fill="rgb(255,255,255)" fill-opacity="1" d=" M176.6230010986328,-9.711000442504883 C176.6230010986328,-9.711000442504883 176.6230010986328,-9.711000442504883 176.6230010986328,-9.711000442504883 C176.6230010986328,-9.154999732971191 176.03399658203125,-8.70300006866455 175.30799865722656,-8.70300006866455 C175.30799865722656,-8.70300006866455 152.16799926757812,-8.70300006866455 152.16799926757812,-8.70300006866455 C151.44200134277344,-8.70300006866455 150.85400390625,-9.154999732971191 150.85400390625,-9.711000442504883 C150.85400390625,-9.711000442504883 150.85400390625,-9.711000442504883 150.85400390625,-9.711000442504883 C150.85400390625,-10.267999649047852 151.44200134277344,-10.718999862670898 152.16799926757812,-10.718999862670898 C152.16799926757812,-10.718999862670898 175.30799865722656,-10.718999862670898 175.30799865722656,-10.718999862670898 C176.03399658203125,-10.718999862670898 176.6230010986328,-10.267999649047852 176.6230010986328,-9.711000442504883z"></path></g></g></g><g opacity="1" transform="matrix(1,0,0,1,0,0)"><g opacity="1" transform="matrix(1,0,0,1,0,0)"><g opacity="1" transform="matrix(1,0,0,1,0,0)"><path fill="rgb(255,255,255)" fill-opacity="1" d=" M184.77499389648438,-9.711000442504883 C184.77499389648438,-9.711000442504883 184.77499389648438,-9.711000442504883 184.77499389648438,-9.711000442504883 C184.77499389648438,-9.154999732971191 184.18600463867188,-8.70300006866455 183.4600067138672,-8.70300006866455 C183.4600067138672,-8.70300006866455 180.04100036621094,-8.70300006866455 180.04100036621094,-8.70300006866455 C179.31500244140625,-8.70300006866455 178.7270050048828,-9.154999732971191 178.7270050048828,-9.711000442504883 C178.7270050048828,-9.711000442504883 178.7270050048828,-9.711000442504883 178.7270050048828,-9.711000442504883 C178.7270050048828,-10.267999649047852 179.31500244140625,-10.718999862670898 180.04100036621094,-10.718999862670898 C180.04100036621094,-10.718999862670898 183.4600067138672,-10.718999862670898 183.4600067138672,-10.718999862670898 C184.18600463867188,-10.718999862670898 184.77499389648438,-10.267999649047852 184.77499389648438,-9.711000442504883z"></path></g></g></g><g opacity="1" transform="matrix(1,0,0,1,0,0)"><g opacity="1" transform="matrix(1,0,0,1,0,0)"><g opacity="1" transform="matrix(1,0,0,1,0,0)"><path fill="rgb(255,255,255)" fill-opacity="1" d=" M141.54400634765625,17.163000106811523 C141.54400634765625,17.163000106811523 147.24000549316406,17.163000106811523 147.24000549316406,17.163000106811523 C147.9550018310547,17.163000106811523 148.53500366210938,17.607999801635742 148.53500366210938,18.1560001373291 C148.53500366210938,18.1560001373291 148.53500366210938,18.1560001373291 148.53500366210938,18.1560001373291 C148.53500366210938,18.70400047302246 147.9550018310547,19.148000717163086 147.24000549316406,19.148000717163086 C147.24000549316406,19.148000717163086 141.54400634765625,19.148000717163086 141.54400634765625,19.148000717163086 C140.82899475097656,19.148000717163086 140.24899291992188,18.70400047302246 140.24899291992188,18.1560001373291 C140.24899291992188,18.1560001373291 140.24899291992188,18.1560001373291 140.24899291992188,18.1560001373291 C140.24899291992188,17.607999801635742 140.82899475097656,17.163000106811523 141.54400634765625,17.163000106811523z"></path></g></g></g><g opacity="1" transform="matrix(1,0,0,1,0,0)"><g opacity="1" transform="matrix(1,0,0,1,0,0)"><g opacity="1" transform="matrix(1,0,0,1,0,0)"><path fill="rgb(255,255,255)" fill-opacity="1" d=" M177.76100158691406,18.17099952697754 C177.76100158691406,18.17099952697754 177.76100158691406,18.17099952697754 177.76100158691406,18.17099952697754 C177.76100158691406,18.72800064086914 177.1719970703125,19.179000854492188 176.4459991455078,19.179000854492188 C176.4459991455078,19.179000854492188 153.30599975585938,19.179000854492188 153.30599975585938,19.179000854492188 C152.5800018310547,19.179000854492188 151.99200439453125,18.72800064086914 151.99200439453125,18.17099952697754 C151.99200439453125,18.17099952697754 151.99200439453125,18.17099952697754 151.99200439453125,18.17099952697754 C151.99200439453125,17.61400032043457 152.5800018310547,17.163000106811523 153.30599975585938,17.163000106811523 C153.30599975585938,17.163000106811523 176.4459991455078,17.163000106811523 176.4459991455078,17.163000106811523 C177.1719970703125,17.163000106811523 177.76100158691406,17.61400032043457 177.76100158691406,18.17099952697754z"></path></g></g></g><g opacity="1" transform="matrix(1,0,0,1,0,0)"><g opacity="1" transform="matrix(1,0,0,1,0,0)"><g opacity="1" transform="matrix(1,0,0,1,0,0)"><path fill="rgb(255,255,255)" fill-opacity="1" d=" M185.91299438476562,18.17099952697754 C185.91299438476562,18.17099952697754 185.91299438476562,18.17099952697754 185.91299438476562,18.17099952697754 C185.91299438476562,18.72800064086914 185.32400512695312,19.179000854492188 184.59800720214844,19.179000854492188 C184.59800720214844,19.179000854492188 181.1790008544922,19.179000854492188 181.1790008544922,19.179000854492188 C180.4530029296875,19.179000854492188 179.86500549316406,18.72800064086914 179.86500549316406,18.17099952697754 C179.86500549316406,18.17099952697754 179.86500549316406,18.17099952697754 179.86500549316406,18.17099952697754 C179.86500549316406,17.61400032043457 180.4530029296875,17.163000106811523 181.1790008544922,17.163000106811523 C181.1790008544922,17.163000106811523 184.59800720214844,17.163000106811523 184.59800720214844,17.163000106811523 C185.32400512695312,17.163000106811523 185.91299438476562,17.61400032043457 185.91299438476562,18.17099952697754z"></path></g></g></g><g opacity="1" transform="matrix(1,0,0,1,0,0)"><g opacity="1" transform="matrix(1,0,0,1,0,0)"><g opacity="1" transform="matrix(1,0,0,1,0,0)"><path fill="rgb(255,255,255)" fill-opacity="1" d=" M140.072998046875,-5.076000213623047 C140.072998046875,-5.076000213623047 161.8979949951172,-5.076000213623047 161.8979949951172,-5.076000213623047 C162.62399291992188,-5.076000213623047 163.21200561523438,-4.625 163.21200561523438,-4.067999839782715 C163.21200561523438,-4.067999839782715 163.21200561523438,-4.067999839782715 163.21200561523438,-4.067999839782715 C163.21200561523438,-3.51200008392334 162.62399291992188,-3.061000108718872 161.8979949951172,-3.061000108718872 C161.8979949951172,-3.061000108718872 140.072998046875,-3.061000108718872 140.072998046875,-3.061000108718872 C139.3470001220703,-3.061000108718872 138.75799560546875,-3.51200008392334 138.75799560546875,-4.067999839782715 C138.75799560546875,-4.067999839782715 138.75799560546875,-4.067999839782715 138.75799560546875,-4.067999839782715 C138.75799560546875,-4.625 139.3470001220703,-5.076000213623047 140.072998046875,-5.076000213623047z"></path></g></g></g><g opacity="1" transform="matrix(1,0,0,1,0,0)"><g opacity="1" transform="matrix(1,0,0,1,0,0)"><g opacity="1" transform="matrix(1,0,0,1,0,0)"><path fill="rgb(255,255,255)" fill-opacity="1" d=" M184.77499389648438,-4.067999839782715 C184.77499389648438,-4.067999839782715 184.77499389648438,-4.067999839782715 184.77499389648438,-4.067999839782715 C184.77499389648438,-3.51200008392334 184.18600463867188,-3.061000108718872 183.4600067138672,-3.061000108718872 C183.4600067138672,-3.061000108718872 168.20899963378906,-3.061000108718872 168.20899963378906,-3.061000108718872 C167.48300170898438,-3.061000108718872 166.8939971923828,-3.51200008392334 166.8939971923828,-4.067999839782715 C166.8939971923828,-4.067999839782715 166.8939971923828,-4.067999839782715 166.8939971923828,-4.067999839782715 C166.8939971923828,-4.625 167.48300170898438,-5.076000213623047 168.20899963378906,-5.076000213623047 C168.20899963378906,-5.076000213623047 183.4600067138672,-5.076000213623047 183.4600067138672,-5.076000213623047 C184.18600463867188,-5.076000213623047 184.77499389648438,-4.625 184.77499389648438,-4.067999839782715z"></path></g></g></g><g opacity="1" transform="matrix(1,0,0,1,0,0)"><g opacity="1" transform="matrix(1,0,0,1,0,0)"><g opacity="1" transform="matrix(1,0,0,1,0,0)"><path fill="rgb(255,255,255)" fill-opacity="1" d=" M185.56300354003906,23.940000534057617 C185.56300354003906,23.940000534057617 185.56300354003906,23.940000534057617 185.56300354003906,23.940000534057617 C185.56300354003906,24.496999740600586 184.97500610351562,24.947999954223633 184.24899291992188,24.947999954223633 C184.24899291992188,24.947999954223633 168.9969940185547,24.947999954223633 168.9969940185547,24.947999954223633 C168.27099609375,24.947999954223633 167.68299865722656,24.496999740600586 167.68299865722656,23.940000534057617 C167.68299865722656,23.940000534057617 167.68299865722656,23.940000534057617 167.68299865722656,23.940000534057617 C167.68299865722656,23.382999420166016 168.27099609375,22.933000564575195 168.9969940185547,22.933000564575195 C168.9969940185547,22.933000564575195 184.24899291992188,22.933000564575195 184.24899291992188,22.933000564575195 C184.97500610351562,22.933000564575195 185.56300354003906,23.382999420166016 185.56300354003906,23.940000534057617z"></path></g></g></g><g opacity="1" transform="matrix(1,0,0,1,0,0)"><g opacity="1" transform="matrix(1,0,0,1,0,0)"><g opacity="1" transform="matrix(1,0,0,1,0,0)"><path fill="rgb(255,255,255)" fill-opacity="1" d=" M140.072998046875,0.5669999718666077 C140.072998046875,0.5669999718666077 149.53900146484375,0.5669999718666077 149.53900146484375,0.5669999718666077 C150.26499938964844,0.5669999718666077 150.85400390625,1.0169999599456787 150.85400390625,1.5740000009536743 C150.85400390625,1.5740000009536743 150.85400390625,1.5740000009536743 150.85400390625,1.5740000009536743 C150.85400390625,2.13100004196167 150.26499938964844,2.5820000171661377 149.53900146484375,2.5820000171661377 C149.53900146484375,2.5820000171661377 140.072998046875,2.5820000171661377 140.072998046875,2.5820000171661377 C139.3470001220703,2.5820000171661377 138.75799560546875,2.13100004196167 138.75799560546875,1.5740000009536743 C138.75799560546875,1.5740000009536743 138.75799560546875,1.5740000009536743 138.75799560546875,1.5740000009536743 C138.75799560546875,1.0169999599456787 139.3470001220703,0.5669999718666077 140.072998046875,0.5669999718666077z"></path></g></g></g><g opacity="1" transform="matrix(1,0,0,1,0,0)"><g opacity="1" transform="matrix(1,0,0,1,0,0)"><g opacity="1" transform="matrix(1,0,0,1,0,0)"><path fill="rgb(255,255,255)" fill-opacity="1" d=" M184.77499389648438,1.5740000009536743 C184.77499389648438,1.5740000009536743 184.77499389648438,1.5740000009536743 184.77499389648438,1.5740000009536743 C184.77499389648438,2.13100004196167 184.18600463867188,2.5820000171661377 183.4600067138672,2.5820000171661377 C183.4600067138672,2.5820000171661377 158.74200439453125,2.5820000171661377 158.74200439453125,2.5820000171661377 C158.01600646972656,2.5820000171661377 157.427001953125,2.13100004196167 157.427001953125,1.5740000009536743 C157.427001953125,1.5740000009536743 157.427001953125,1.5740000009536743 157.427001953125,1.5740000009536743 C157.427001953125,1.0169999599456787 158.01600646972656,0.5669999718666077 158.74200439453125,0.5669999718666077 C158.74200439453125,0.5669999718666077 183.4600067138672,0.5669999718666077 183.4600067138672,0.5669999718666077 C184.18600463867188,0.5669999718666077 184.77499389648438,1.0169999599456787 184.77499389648438,1.5740000009536743z"></path></g></g></g><g opacity="1" transform="matrix(1,0,0,1,0,0)"><g opacity="1" transform="matrix(1,0,0,1,0,0)"><g opacity="1" transform="matrix(1,0,0,1,0,0)"><path fill="rgb(255,255,255)" fill-opacity="1" d=" M140.072998046875,6.209000110626221 C140.072998046875,6.209000110626221 157.1649932861328,6.209000110626221 157.1649932861328,6.209000110626221 C157.89100646972656,6.209000110626221 158.47900390625,6.659999847412109 158.47900390625,7.2170000076293945 C158.47900390625,7.2170000076293945 158.47900390625,7.2170000076293945 158.47900390625,7.2170000076293945 C158.47900390625,7.77400016784668 157.89100646972656,8.225000381469727 157.1649932861328,8.225000381469727 C157.1649932861328,8.225000381469727 140.072998046875,8.225000381469727 140.072998046875,8.225000381469727 C139.3470001220703,8.225000381469727 138.75799560546875,7.77400016784668 138.75799560546875,7.2170000076293945 C138.75799560546875,7.2170000076293945 138.75799560546875,7.2170000076293945 138.75799560546875,7.2170000076293945 C138.75799560546875,6.659999847412109 139.3470001220703,6.209000110626221 140.072998046875,6.209000110626221z"></path></g></g></g><g opacity="1" transform="matrix(1,0,0,1,0,0)"><g opacity="1" transform="matrix(1,0,0,1,0,0)"><g opacity="1" transform="matrix(1,0,0,1,0,0)"><path fill="rgb(255,255,255)" fill-opacity="1" d=" M184.77499389648438,7.2170000076293945 C184.77499389648438,7.2170000076293945 184.77499389648438,7.2170000076293945 184.77499389648438,7.2170000076293945 C184.77499389648438,7.77400016784668 184.18600463867188,8.225000381469727 183.4600067138672,8.225000381469727 C183.4600067138672,8.225000381469727 162.94900512695312,8.225000381469727 162.94900512695312,8.225000381469727 C162.22300720214844,8.225000381469727 161.63499450683594,7.77400016784668 161.63499450683594,7.2170000076293945 C161.63499450683594,7.2170000076293945 161.63499450683594,7.2170000076293945 161.63499450683594,7.2170000076293945 C161.63499450683594,6.659999847412109 162.22300720214844,6.209000110626221 162.94900512695312,6.209000110626221 C162.94900512695312,6.209000110626221 183.4600067138672,6.209000110626221 183.4600067138672,6.209000110626221 C184.18600463867188,6.209000110626221 184.77499389648438,6.659999847412109 184.77499389648438,7.2170000076293945z"></path></g></g></g><g opacity="1" transform="matrix(1,0,0,1,0,0)"><g opacity="1" transform="matrix(1,0,0,1,0,0)"><g opacity="1" transform="matrix(1,0,0,1,0,0)"><path fill="rgb(255,255,255)" fill-opacity="1" d=" M140.072998046875,11.85200023651123 C140.072998046875,11.85200023651123 146.90899658203125,11.85200023651123 146.90899658203125,11.85200023651123 C147.63499450683594,11.85200023651123 148.2239990234375,12.303000450134277 148.2239990234375,12.859999656677246 C148.2239990234375,12.859999656677246 148.2239990234375,12.859999656677246 148.2239990234375,12.859999656677246 C148.2239990234375,13.416999816894531 147.63499450683594,13.866999626159668 146.90899658203125,13.866999626159668 C146.90899658203125,13.866999626159668 140.072998046875,13.866999626159668 140.072998046875,13.866999626159668 C139.3470001220703,13.866999626159668 138.75799560546875,13.416999816894531 138.75799560546875,12.859999656677246 C138.75799560546875,12.859999656677246 138.75799560546875,12.859999656677246 138.75799560546875,12.859999656677246 C138.75799560546875,12.303000450134277 139.3470001220703,11.85200023651123 140.072998046875,11.85200023651123z"></path></g></g></g><g opacity="1" transform="matrix(1,0,0,1,0,0)"><g opacity="1" transform="matrix(1,0,0,1,0,0)"><g opacity="1" transform="matrix(1,0,0,1,0,0)"><path fill="rgb(255,255,255)" fill-opacity="1" d=" M151.64199829101562,11.85200023651123 C151.64199829101562,11.85200023651123 167.68299865722656,11.85200023651123 167.68299865722656,11.85200023651123 C168.40899658203125,11.85200023651123 168.9969940185547,12.303000450134277 168.9969940185547,12.859999656677246 C168.9969940185547,12.859999656677246 168.9969940185547,12.859999656677246 168.9969940185547,12.859999656677246 C168.9969940185547,13.416999816894531 168.40899658203125,13.866999626159668 167.68299865722656,13.866999626159668 C167.68299865722656,13.866999626159668 151.64199829101562,13.866999626159668 151.64199829101562,13.866999626159668 C150.91600036621094,13.866999626159668 150.3280029296875,13.416999816894531 150.3280029296875,12.859999656677246 C150.3280029296875,12.859999656677246 150.3280029296875,12.859999656677246 150.3280029296875,12.859999656677246 C150.3280029296875,12.303000450134277 150.91600036621094,11.85200023651123 151.64199829101562,11.85200023651123z"></path></g></g></g><g opacity="1" transform="matrix(1,0,0,1,0,0)"><g opacity="1" transform="matrix(1,0,0,1,0,0)"><g opacity="1" transform="matrix(1,0,0,1,0,0)"><path fill="rgb(255,255,255)" fill-opacity="1" d=" M184.42100524902344,12.496999740600586 C184.42100524902344,12.496999740600586 184.42100524902344,12.496999740600586 184.42100524902344,12.496999740600586 C184.42100524902344,13.045000076293945 183.84100341796875,13.48900032043457 183.12600708007812,13.48900032043457 C183.12600708007812,13.48900032043457 176.6540069580078,13.48900032043457 176.6540069580078,13.48900032043457 C175.93899536132812,13.48900032043457 175.35899353027344,13.045000076293945 175.35899353027344,12.496999740600586 C175.35899353027344,12.496999740600586 175.35899353027344,12.496999740600586 175.35899353027344,12.496999740600586 C175.35899353027344,11.949000358581543 175.93899536132812,11.505000114440918 176.6540069580078,11.505000114440918 C176.6540069580078,11.505000114440918 183.12600708007812,11.505000114440918 183.12600708007812,11.505000114440918 C183.84100341796875,11.505000114440918 184.42100524902344,11.949000358581543 184.42100524902344,12.496999740600586z"></path></g></g></g></g></g><g transform="matrix(-7.556059837341309,-3.458622694015503,3.2338743209838867,-7.065051555633545,1466.6612548828125,756.852783203125)" opacity="1" style="display: block;"><g opacity="1" transform="matrix(1,0,0,1,0,0)"><g opacity="1" transform="matrix(1,0,0,1,0,0)"><g opacity="1" transform="matrix(1,0,0,1,0,0)"><g opacity="1" transform="matrix(1,0,0,1,0,0)"><g opacity="1" transform="matrix(1,0,0,1,0,0)"><g opacity="1" transform="matrix(1,0,0,1,0,0)"><g opacity="1" transform="matrix(1,0,0,1,0,0)"><path fill="rgb(23,152,165)" fill-opacity="1" d=" M121.20600128173828,-11.725000381469727 C120.95500183105469,-11.88599967956543 120.7030029296875,-12.04800033569336 120.4520034790039,-12.208999633789062 C120.34500122070312,-11.989999771118164 120.23699951171875,-11.732999801635742 120.14299774169922,-11.437999725341797 C119.95899963378906,-10.857999801635742 119.89600372314453,-10.333000183105469 119.87899780273438,-9.930000305175781 C120.21199798583984,-9.902000427246094 120.54399871826172,-9.87399959564209 120.87699890136719,-9.845999717712402 C120.95099639892578,-9.116000175476074 121.0250015258789,-8.38700008392334 121.0989990234375,-7.6570000648498535 C121.0989990234375,-7.6570000648498535 120.24600219726562,-7.230999946594238 120.24600219726562,-7.230999946594238 C120.46299743652344,-6.563000202178955 120.7760009765625,-5.928999900817871 121.18099975585938,-5.357999801635742 C121.18099975585938,-5.357999801635742 122.00399780273438,-6.13100004196167 122.00399780273438,-6.13100004196167 C122.00399780273438,-6.13100004196167 122.41500091552734,-5.848999977111816 122.41500091552734,-5.848999977111816 C122.68900299072266,-5.5269999504089355 123.0009994506836,-5.235000133514404 123.35099792480469,-4.980000019073486 C123.51200103759766,-4.86299991607666 123.6780014038086,-4.756999969482422 123.84600067138672,-4.6620001792907715 C123.84600067138672,-4.6620001792907715 123.47599792480469,-3.368000030517578 123.47599792480469,-3.368000030517578 C124.11699676513672,-3.0460000038146973 124.79100036621094,-2.8529999256134033 125.46900177001953,-2.7839999198913574 C125.46900177001953,-2.7839999198913574 125.51399993896484,-4.078000068664551 125.51399993896484,-4.078000068664551 C126.25499725341797,-3.9639999866485596 127.00299835205078,-4.03000020980835 127.7040023803711,-4.263000011444092 C127.7040023803711,-4.263000011444092 128.26600646972656,-3.2039999961853027 128.26600646972656,-3.2039999961853027 C128.86399841308594,-3.453000068664551 129.4320068359375,-3.803999900817871 129.9429931640625,-4.251999855041504 C129.77000427246094,-4.5920000076293945 129.5959930419922,-4.933000087738037 129.4219970703125,-5.2729997634887695 C129.77200317382812,-5.5920000076293945 130.08599853515625,-5.96999979019165 130.3509979248047,-6.40500020980835 C130.47000122070312,-6.599999904632568 130.5760040283203,-6.798999786376953 130.66799926757812,-7.004000186920166 C131.01199340820312,-6.89900016784668 131.3560028076172,-6.795000076293945 131.6999969482422,-6.690000057220459 C132.01499938964844,-7.419000148773193 132.2030029296875,-8.187000274658203 132.2689971923828,-8.958000183105469 C131.89999389648438,-9.008000373840332 131.5290069580078,-9.059000015258789 131.16000366210938,-9.109000205993652 C131.19400024414062,-9.925000190734863 131.05799865722656,-10.746000289916992 130.76300048828125,-11.505000114440918 C130.76300048828125,-11.505000114440918 131.80799865722656,-12.23900032043457 131.80799865722656,-12.23900032043457 C131.56199645996094,-12.876999855041504 131.2259979248047,-13.47599983215332 130.80299377441406,-14.012999534606934 C130.80299377441406,-14.012999534606934 129.85800170898438,-13.067999839782715 129.85800170898438,-13.067999839782715 C129.85800170898438,-13.067999839782715 129.8459930419922,-13.076000213623047 129.8459930419922,-13.076000213623047 C129.55999755859375,-13.42300033569336 129.22799682617188,-13.737000465393066 128.85499572753906,-14.008000373840332 C128.5749969482422,-14.211999893188477 128.28399658203125,-14.381999969482422 127.98600006103516,-14.520000457763672 C127.98600006103516,-14.520000457763672 128.33900451660156,-15.906000137329102 128.33900451660156,-15.906000137329102 C127.79299926757812,-16.135000228881836 127.22699737548828,-16.273000717163086 126.65899658203125,-16.325000762939453 C126.65899658203125,-16.325000762939453 126.40499877929688,-14.97700023651123 126.40499877929688,-14.97700023651123 C126.40499877929688,-14.97700023651123 126.23899841308594,-14.958000183105469 126.23899841308594,-14.958000183105469 C125.70899963378906,-14.987000465393066 125.18099975585938,-14.927000045776367 124.67500305175781,-14.779999732971191 C124.67500305175781,-14.779999732971191 124.1760025024414,-14.722999572753906 124.1760025024414,-14.722999572753906 C124.1760025024414,-14.722999572753906 123.79199981689453,-15.845999717712402 123.79199981689453,-15.845999717712402 C123.07499694824219,-15.527999877929688 122.40599822998047,-15.062000274658203 121.8280029296875,-14.456999778747559 C121.8280029296875,-14.456999778747559 122.39700317382812,-13.592000007629395 122.39700317382812,-13.592000007629395 C122,-12.970000267028809 121.60299682617188,-12.347000122070312 121.20600128173828,-11.725000381469727z M123.28099822998047,-10.977999687194824 C124.15899658203125,-12.92199993133545 126.49299621582031,-13.397000312805176 128.03900146484375,-11.946999549865723 C129.1009979248047,-10.951000213623047 129.42300415039062,-9.310999870300293 128.82000732421875,-7.9770002365112305 C127.94200134277344,-6.0329999923706055 125.60800170898438,-5.558000087738037 124.06199645996094,-7.007999897003174 C123,-8.003999710083008 122.6780014038086,-9.644000053405762 123.28099822998047,-10.977999687194824z"></path></g></g></g></g></g></g></g></g><g transform="matrix(-6.494895935058594,5.183863162994385,-4.859481334686279,-6.088476181030273,1417.34423828125,-292.0653381347656)" opacity="1" style="display: block;"><g opacity="1" transform="matrix(1,0,0,1,0,0)"><g opacity="1" transform="matrix(1,0,0,1,0,0)"><g opacity="1" transform="matrix(1,0,0,1,0,0)"><g opacity="1" transform="matrix(1,0,0,1,0,0)"><g opacity="1" transform="matrix(1,0,0,1,0,0)"><g opacity="1" transform="matrix(1,0,0,1,0,0)"><g opacity="1" transform="matrix(1,0,0,1,0,0)"><path fill="rgb(23,152,165)" fill-opacity="1" d=" M133.13099670410156,-6.6539998054504395 C133.0330047607422,-6.809000015258789 132.9340057373047,-6.965000152587891 132.83599853515625,-7.119999885559082 C132.7259979248047,-7.0329999923706055 132.60499572753906,-6.926000118255615 132.48500061035156,-6.796000003814697 C132.2480010986328,-6.539999961853027 132.08999633789062,-6.28000020980835 131.98500061035156,-6.071000099182129 C132.15899658203125,-5.964000225067139 132.33299255371094,-5.85699987411499 132.5070037841797,-5.75 C132.37399291992188,-5.3429999351501465 132.24200439453125,-4.935999870300293 132.10899353027344,-4.5289998054504395 C132.10899353027344,-4.5289998054504395 131.5449981689453,-4.539000034332275 131.5449981689453,-4.539000034332275 C131.50399780273438,-4.125 131.5240020751953,-3.703000068664551 131.60800170898438,-3.2880001068115234 C131.60800170898438,-3.2880001068115234 132.23899841308594,-3.4700000286102295 132.23899841308594,-3.4700000286102295 C132.23899841308594,-3.4700000286102295 132.39500427246094,-3.2060000896453857 132.39500427246094,-3.2060000896453857 C132.4669952392578,-2.9600000381469727 132.56700134277344,-2.7190001010894775 132.69700622558594,-2.486999988555908 C132.7570037841797,-2.380000114440918 132.8209991455078,-2.2790000438690186 132.88999938964844,-2.181999921798706 C132.88999938964844,-2.181999921798706 132.38299560546875,-1.5989999771118164 132.38299560546875,-1.5989999771118164 C132.65499877929688,-1.2510000467300415 132.97500610351562,-0.9620000123977661 133.32699584960938,-0.7379999756813049 C133.32699584960938,-0.7379999756813049 133.65699768066406,-1.4110000133514404 133.65699768066406,-1.4110000133514404 C134.03199768066406,-1.1460000276565552 134.45399475097656,-0.9739999771118164 134.88999938964844,-0.902999997138977 C134.88999938964844,-0.902999997138977 134.94400024414062,-0.1860000044107437 134.94400024414062,-0.1860000044107437 C135.3280029296875,-0.15299999713897705 135.718994140625,-0.18199999630451202 136.10299682617188,-0.27799999713897705 C136.08900451660156,-0.5059999823570251 136.0760040283203,-0.7350000143051147 136.06199645996094,-0.9629999995231628 C136.3280029296875,-1.034999966621399 136.58700561523438,-1.1480000019073486 136.83399963378906,-1.3049999475479126 C136.94500732421875,-1.375 137.0500030517578,-1.4520000219345093 137.1479949951172,-1.534999966621399 C137.30999755859375,-1.3839999437332153 137.4720001220703,-1.2339999675750732 137.63400268554688,-1.0829999446868896 C137.97799682617188,-1.3819999694824219 138.26100158691406,-1.7380000352859497 138.47999572753906,-2.128000020980835 C138.29100036621094,-2.256999969482422 138.10299682617188,-2.384999990463257 137.91400146484375,-2.5139999389648438 C138.12600708007812,-2.937000036239624 138.24600219726562,-3.4089999198913574 138.26600646972656,-3.8929998874664307 C138.26600646972656,-3.8929998874664307 139.0070037841797,-3.993000030517578 139.0070037841797,-3.993000030517578 C139.02499389648438,-4.39900016784668 138.98399353027344,-4.810999870300293 138.8820037841797,-5.211999893188477 C138.8820037841797,-5.211999893188477 138.14500427246094,-4.9720001220703125 138.14500427246094,-4.9720001220703125 C138.14500427246094,-4.9720001220703125 138.13999938964844,-4.980000019073486 138.13999938964844,-4.980000019073486 C138.06700134277344,-5.243000030517578 137.96200561523438,-5.500999927520752 137.82400512695312,-5.748000144958496 C137.72000122070312,-5.933000087738037 137.6020050048828,-6.104000091552734 137.47300720214844,-6.258999824523926 C137.47300720214844,-6.258999824523926 137.9929962158203,-6.895999908447266 137.9929962158203,-6.895999908447266 C137.75100708007812,-7.168000221252441 137.4759979248047,-7.3979997634887695 137.17999267578125,-7.583000183105469 C137.17999267578125,-7.583000183105469 136.72300720214844,-6.939000129699707 136.72300720214844,-6.939000129699707 C136.72300720214844,-6.939000129699707 136.62899780273438,-6.974999904632568 136.62899780273438,-6.974999904632568 C136.34800720214844,-7.13700008392334 136.04600524902344,-7.250999927520752 135.73699951171875,-7.313000202178955 C135.73699951171875,-7.313000202178955 135.4530029296875,-7.421000003814697 135.4530029296875,-7.421000003814697 C135.4530029296875,-7.421000003814697 135.50999450683594,-8.121999740600586 135.50999450683594,-8.121999740600586 C135.04600524902344,-8.152000427246094 134.572998046875,-8.09000015258789 134.11599731445312,-7.929999828338623 C134.11599731445312,-7.929999828338623 134.22000122070312,-7.314000129699707 134.22000122070312,-7.314000129699707 C133.85699462890625,-7.093999862670898 133.49400329589844,-6.874000072479248 133.13099670410156,-6.6539998054504395z M134.0800018310547,-5.684999942779541 C135.01699829101562,-6.4720001220703125 136.39599609375,-6.077000141143799 136.89199829101562,-4.88100004196167 C137.23199462890625,-4.059999942779541 137.0189971923828,-3.1019999980926514 136.37600708007812,-2.562000036239624 C135.43899536132812,-1.774999976158142 134.0590057373047,-2.1689999103546143 133.56300354003906,-3.365000009536743 C133.22300720214844,-4.185999870300293 133.43699645996094,-5.144999980926514 134.0800018310547,-5.684999942779541z"></path></g></g></g></g></g></g></g></g><g transform="matrix(8.3100004196167,0,0,8.3100004196167,-564.536376953125,467.717529296875)" opacity="1" style="display: block;"><g opacity="1" transform="matrix(1,0,0,1,122.85700225830078,34.71500015258789)"><path fill="rgb(31,106,161)" fill-opacity="1" d=" M35.67900085449219,-2.490999937057495 C35.67900085449219,-2.490999937057495 35.67900085449219,2.490999937057495 35.67900085449219,2.490999937057495 C35.67900085449219,2.490999937057495 -35.67900085449219,2.490999937057495 -35.67900085449219,2.490999937057495 C-35.67900085449219,2.490999937057495 -35.67900085449219,-2.490999937057495 -35.67900085449219,-2.490999937057495 C-35.67900085449219,-2.490999937057495 35.67900085449219,-2.490999937057495 35.67900085449219,-2.490999937057495z"></path></g><g opacity="1" transform="matrix(1,0,0,1,0,0)"><path fill="rgb(7,7,11)" fill-opacity="1" d=" M163.33999633789062,11.473999977111816 C163.33999633789062,11.473999977111816 156.00599670410156,27.854999542236328 156.00599670410156,27.854999542236328 C155.53700256347656,28.900999069213867 154.4969940185547,29.575000762939453 153.3509979248047,29.575000762939453 C153.3509979248047,29.575000762939453 124.77300262451172,29.575000762939453 124.77300262451172,29.575000762939453 C122.64800262451172,29.575000762939453 121.23999786376953,27.371000289916992 122.13400268554688,25.44300079345703 C122.13400268554688,25.44300079345703 129.79200744628906,8.927000045776367 129.79200744628906,8.927000045776367 C130.27000427246094,7.894999980926514 131.30599975585938,7.236999988555908 132.44400024414062,7.242000102996826 C132.44400024414062,7.242000102996826 160.69900512695312,7.376999855041504 160.69900512695312,7.376999855041504 C162.80099487304688,7.38700008392334 164.19900512695312,9.555000305175781 163.33999633789062,11.473999977111816z"></path></g><g opacity="1" transform="matrix(1,0,0,1,0,0)"><path fill="rgb(7,7,11)" fill-opacity="1" d=" M147.49400329589844,28.892000198364258 C147.49400329589844,28.892000198364258 148.21499633789062,26.52899932861328 148.21499633789062,26.52899932861328 C148.21499633789062,26.52899932861328 151.1840057373047,26.52899932861328 151.1840057373047,26.52899932861328 C151.1840057373047,26.52899932861328 151.59800720214844,29.01799964904785 151.59800720214844,29.01799964904785 C151.59800720214844,29.01799964904785 147.49400329589844,28.892000198364258 147.49400329589844,28.892000198364258z"></path></g><g opacity="1" transform="matrix(1,0,0,1,0,0)"><path fill="rgb(7,7,11)" fill-opacity="1" d=" M153.83099365234375,32.34299850463867 C153.83099365234375,32.34299850463867 117.56800079345703,32.34299850463867 117.56800079345703,32.34299850463867 C116.73899841308594,32.34299850463867 116.0479965209961,31.06800079345703 116.0479965209961,30.23900032043457 C116.0479965209961,30.23900032043457 116.0479965209961,29.843000411987305 116.0479965209961,29.843000411987305 C116.0479965209961,29.013999938964844 116.72100067138672,28.340999603271484 117.55000305175781,28.340999603271484 C117.55000305175781,28.340999603271484 153.81300354003906,28.340999603271484 153.81300354003906,28.340999603271484 C154.64199829101562,28.340999603271484 155.31500244140625,29.013999938964844 155.31500244140625,29.843000411987305 C155.31500244140625,29.843000411987305 155.31500244140625,30.23900032043457 155.31500244140625,30.23900032043457 C155.31500244140625,31.06800079345703 154.66000366210938,32.34299850463867 153.83099365234375,32.34299850463867z"></path></g><g opacity="1" transform="matrix(1,0,0,1,0,0)"><path fill="rgb(255,255,255)" fill-opacity="1" d=" M131.09800720214844,9.515999794006348 C131.09800720214844,9.515999794006348 124.5719985961914,23.40999984741211 124.5719985961914,23.40999984741211 C124.34700012207031,23.88800048828125 124.69599914550781,24.437999725341797 125.2239990234375,24.437999725341797 C125.2239990234375,24.437999725341797 154.7689971923828,24.437999725341797 154.7689971923828,24.437999725341797 C155.04800415039062,24.437999725341797 155.30299377441406,24.275999069213867 155.4219970703125,24.023000717163086 C155.4219970703125,24.023000717163086 161.947998046875,10.128999710083008 161.947998046875,10.128999710083008 C162.17300415039062,9.651000022888184 161.82400512695312,9.10099983215332 161.29600524902344,9.10099983215332 C161.29600524902344,9.10099983215332 131.75100708007812,9.10099983215332 131.75100708007812,9.10099983215332 C131.4720001220703,9.10099983215332 131.2169952392578,9.262999534606934 131.09800720214844,9.515999794006348z"></path></g></g><g transform="matrix(8.297624588012695,-0.45335304737091064,0.45335304737091064,8.297624588012695,-572.3983764648438,513.28369140625)" opacity="1" style="display: block;"><g opacity="1" transform="matrix(1,0,0,1,0,0)"><path fill="rgb(226,173,134)" fill-opacity="1" d=" M112.7020034790039,24.139999389648438 C112.7020034790039,24.139999389648438 118.4990005493164,21.187999725341797 120.85900115966797,22.513999938964844 C123.21900177001953,23.84000015258789 129.8209991455078,28.315000534057617 130.16600036621094,29.54400062561035 C130.51100158691406,30.77199935913086 128.43800354003906,30.98200035095215 126.82599639892578,30.90399932861328 C125.21399688720703,30.826000213623047 119.80500030517578,26.6200008392334 119.80500030517578,26.6200008392334 C119.80500030517578,26.6200008392334 113.35700225830078,26.30900001525879 113.35700225830078,26.30900001525879 C113.35700225830078,26.30900001525879 112.7020034790039,24.139999389648438 112.7020034790039,24.139999389648438z"></path></g><g opacity="1" transform="matrix(1,0,0,1,0,0)"><path fill="rgb(226,173,134)" fill-opacity="1" d=" M120.50800323486328,27.461999893188477 C120.50800323486328,27.461999893188477 117.68800354003906,29.15999984741211 117.68800354003906,29.15999984741211 C117.68800354003906,29.15999984741211 115.21800231933594,30.795000076293945 114.38099670410156,31.05299949645996 C113.54399871826172,31.31100082397461 106.68900299072266,33.68600082397461 102.1729965209961,32.61199951171875 C97.65699768066406,31.538000106811523 96.56600189208984,27.141000747680664 102.82099914550781,24.81100082397461 C109.07599639892578,22.481000900268555 116.56300354003906,21.867000579833984 120.052001953125,22.30299949645996 C120.33799743652344,22.339000701904297 120.66200256347656,22.405000686645508 121.01399993896484,22.496000289916992 C124.947998046875,23.516000747680664 132.13800048828125,24.643999099731445 131.21800231933594,27.016000747680664 C130.21600341796875,29.600000381469727 128.11199951171875,27.743000030517578 125.52799987792969,26.740999221801758 C122.94400024414062,25.73900032043457 120.50800323486328,27.461999893188477 120.50800323486328,27.461999893188477z"></path></g></g><g mask="url(#__lottie_element_65645_1)" style="display: block;"><g transform="matrix(8.3100004196167,0,0,8.3100004196167,-564.5325927734375,467.71295166015625)" opacity="1"><g opacity="1" transform="matrix(1,0,0,1,0,0)"><path fill="rgb(7,7,11)" fill-opacity="1" d=" M135.5070037841797,42.198001861572266 C134.70599365234375,41.12099838256836 132.20700073242188,38.31100082397461 119.50299835205078,37.98699951171875 C117.88999938964844,37.94599914550781 116.06900024414062,37.94599914550781 114.072998046875,38.018001556396484 C112.98600006103516,36.499000549316406 111.6989974975586,35.18199920654297 110.23799896240234,34.19599914550781 C106.63300323486328,31.761999130249023 102.59200286865234,31.724000930786133 96.76000213623047,31.66900062561035 C90.4229965209961,31.608999252319336 86.73999786376953,33.393001556396484 83.46399688720703,34.37699890136719 C76.5989990234375,41.189998626708984 73.6709976196289,51.020999908447266 77.38700103759766,56.518001556396484 C80.97000122070312,61.81999969482422 88.65699768066406,61.89799880981445 98.02400207519531,61.99300003051758 C101.20999908447266,62.025001525878906 103.98600006103516,62.051998138427734 106.38800048828125,61.85900115966797 C106.41400146484375,61.9109992980957 106.43900299072266,61.9640007019043 106.46499633789062,62.01599884033203 C106.46499633789062,62.01599884033203 132.5590057373047,59.04499816894531 135.5070037841797,55.67599868774414 C138.28399658203125,52.50199890136719 138.3769989013672,46.05400085449219 135.5070037841797,42.198001861572266z"></path></g></g></g><g transform="matrix(8.305839538574219,-0.26292821764945984,0.26292821764945984,8.305839538574219,-568.0792846679688,492.2526550292969)" opacity="1" style="display: block;"><g opacity="1" transform="matrix(1,0,0,1,0,0)"><path fill="rgb(226,173,134)" fill-opacity="1" d=" M94.23400115966797,3.0309998989105225 C92.87799835205078,3.065999984741211 89.46499633789062,3.6559998989105225 84.5469970703125,11.875 C80.76399993896484,18.195999145507812 76.06800079345703,26.04400062561035 79.0719985961914,29.985000610351562 C80.447998046875,31.791000366210938 83.7979965209961,32.055999755859375 90.44300079345703,32.512001037597656 C95.34500122070312,32.8489990234375 99.41999816894531,32.707000732421875 102.23600006103516,32.512001037597656 C102.3759994506836,28.86199951171875 102.51699829101562,25.211999893188477 102.65699768066406,21.562000274658203 C98.86699676513672,20.43899917602539 95.07499694824219,19.315000534057617 91.28500366210938,18.191999435424805 C93.31800079345703,14.647000312805176 98.28299713134766,5.543000221252441 95.91799926757812,3.4519999027252197 C95.79499816894531,3.3429999351501465 95.36799621582031,3.002000093460083 94.23400115966797,3.0309998989105225z"></path></g><g opacity="1" transform="matrix(1,0,0,1,0,0)"><g opacity="1" transform="matrix(1,0,0,1,0,0)"><g opacity="1" transform="matrix(1,0,0,1,0,0)"><path fill="rgb(255,177,61)" fill-opacity="1" d=" M93.39099884033203,2.6089999675750732 C93.39099884033203,2.6089999675750732 88.75800323486328,-0.7599999904632568 76.96600341796875,21.982999801635742 C76.96600341796875,21.982999801635742 78.16300201416016,30.391000747680664 86.197998046875,32.71500015258789 C86.197998046875,32.71500015258789 103.0780029296875,0.9240000247955322 93.39099884033203,2.6089999675750732z"></path></g></g></g></g><g transform="matrix(8.309640884399414,-0.07727272063493729,0.07727272063493729,8.309640884399414,-567.1107177734375,475.1048583984375)" opacity="1" style="display: block;"><g opacity="1" transform="matrix(1,0,0,1,0,0)"><g opacity="1" transform="matrix(1,0,0,1,0,0)"><g opacity="1" transform="matrix(1,0,0,1,0,0)"><path fill="rgb(255,177,61)" fill-opacity="1" d=" M79.0719985961914,37.98699951171875 C81.83499908447266,29.27899932861328 83.84700012207031,22.716999053955078 84.96800231933594,19.03499984741211 C88.13899993896484,8.619999885559082 89.2770004272461,4.493000030517578 93.39099884033203,2.187999963760376 C93.87300109863281,1.9179999828338623 98.60199737548828,-0.8690000176429749 102.73500061035156,1.0180000066757202 C105.85600280761719,2.443000078201294 106.94999694824219,5.756999969482422 108.5530014038086,10.612000465393066 C109.61599731445312,13.831000328063965 110.18099975585938,16.808000564575195 111.08000183105469,25.351999282836914 C111.53600311279297,29.687999725341797 111.875,33.527000427246094 112.12899780273438,36.73899841308594 C108.16799926757812,38.46200180053711 101.0989990234375,40.888999938964844 92.12799835205078,40.513999938964844 C86.7490005493164,40.28900146484375 82.29499816894531,39.124000549316406 79.0719985961914,37.98699951171875z"></path></g></g></g><g opacity="1" transform="matrix(1,0,0,1,0,0)"><path fill="rgb(255,255,255)" fill-opacity="1" d=" M98.5459976196289,38.382999420166016 C98.34200286865234,38.382999420166016 98.16899871826172,38.22800064086914 98.1510009765625,38.020999908447266 C97.73200225830078,33.191001892089844 98.30500030517578,16.96500015258789 98.33000183105469,16.277000427246094 C98.33799743652344,16.058000564575195 98.51399993896484,15.88700008392334 98.74099731445312,15.895000457763672 C98.95999908447266,15.902999877929688 99.13200378417969,16.086999893188477 99.1240005493164,16.305999755859375 C99.11799621582031,16.474000930786133 98.5270004272461,33.17100143432617 98.94200134277344,37.95199966430664 C98.96099853515625,38.17100143432617 98.7979965209961,38.362998962402344 98.58000183105469,38.38199996948242 C98.56800079345703,38.382999420166016 98.55799865722656,38.382999420166016 98.5459976196289,38.382999420166016z"></path></g></g><g transform="matrix(8.228827476501465,-1.158660650253296,1.158660650253296,8.228827476501465,-590.7721557617188,596.6997680664062)" opacity="1" style="display: block;"><g opacity="1" transform="matrix(1,0,0,1,0,0)"><g opacity="1" transform="matrix(1,0,0,1,0,0)"><path fill="rgb(247,190,143)" fill-opacity="1" d=" M112.50299835205078,27.344999313354492 C117.99500274658203,26.38800048828125 120.79299926757812,25.856000900268555 124.54100036621094,24.36199951171875 C125.45500183105469,25.138999938964844 126.21800231933594,26.000999450683594 127.27899932861328,28.643999099731445 C128.12600708007812,30.753999710083008 126.85099792480469,30.673999786376953 126.82599639892578,31.805999755859375 C124.9990005493164,33.02799987792969 123.2490005493164,36.75 119.02799987792969,37.56100082397461 C115.53299713134766,38.233001708984375 109.427001953125,39.50400161743164 106.0530014038086,36.29600143432617 C103.66999816894531,34.029998779296875 107.10700225830078,28.28499984741211 112.50299835205078,27.344999313354492z"></path></g></g></g><g transform="matrix(8.228827476501465,-1.158660650253296,1.158660650253296,8.228827476501465,-590.7721557617188,596.6997680664062)" opacity="1" style="display: block;"><g opacity="1" transform="matrix(1,0,0,1,0,0)"><path fill="rgb(7,7,11)" fill-opacity="1" d=" M128.68499755859375,28.868000030517578 C128.68499755859375,28.868000030517578 129.406005859375,26.5049991607666 129.406005859375,26.5049991607666 C129.406005859375,26.5049991607666 132.375,26.5049991607666 132.375,26.5049991607666 C132.375,26.5049991607666 132.78900146484375,28.993999481201172 132.78900146484375,28.993999481201172 C132.78900146484375,28.993999481201172 128.68499755859375,28.868000030517578 128.68499755859375,28.868000030517578z"></path></g><g opacity="1" transform="matrix(1,0,0,1,0,0)"><path fill="rgb(247,190,143)" fill-opacity="1" d=" M135.49099731445312,26.917999267578125 C135.4510040283203,27.009000778198242 135.406005859375,27.09000015258789 135.35499572753906,27.165000915527344 C135.05999755859375,27.613000869750977 134.58999633789062,27.825000762939453 133.74600219726562,28.395999908447266 C132.5749969482422,29.187000274658203 132.55599975585938,29.395000457763672 131.62600708007812,30.062999725341797 C131.62100219726562,30.06599998474121 131.61700439453125,30.069000244140625 131.61199951171875,30.073999404907227 C130.75100708007812,30.684999465942383 129.37899780273438,31.496999740600586 127.32599639892578,32.11899948120117 C126.572998046875,31.832000732421875 125.68800354003906,31.420000076293945 124.76300048828125,30.805999755859375 C122.99400329589844,29.631999969482422 121.86199951171875,28.250999450683594 121.19499969482422,27.270000457763672 C122.06099700927734,25.441999435424805 122.9209976196289,23.98900032043457 123.59100341796875,22.94300079345703 C124.23400115966797,21.940000534057617 124.77400207519531,21.200000762939453 125.30999755859375,20.613000869750977 C125.76799774169922,20.106000900268555 126.22100067138672,19.711999893188477 126.73600006103516,19.361000061035156 C126.84300231933594,19.288999557495117 126.95500183105469,19.21299934387207 127.06800079345703,19.141000747680664 C127.63400268554688,18.77899932861328 128.25599670410156,18.452999114990234 128.84800720214844,18.441999435424805 C129.04600524902344,18.43899917602539 129.23899841308594,18.468000411987305 129.427001953125,18.54599952697754 C129.50999450683594,18.58099937438965 130.10800170898438,18.849000930786133 130.2050018310547,19.35300064086914 C130.29299926757812,19.805999755859375 129.93099975585938,20.202999114990234 130.052001953125,20.30500030517578 C130.15899658203125,20.395999908447266 130.43499755859375,20.02400016784668 130.91000366210938,19.969999313354492 C131.36300659179688,19.922000885009766 131.81900024414062,20.047000885009766 132.15699768066406,20.344999313354492 C132.22900390625,20.406999588012695 132.29299926757812,20.47599983215332 132.3470001220703,20.551000595092773 C132.35800170898438,20.562000274658203 132.36500549316406,20.56999969482422 132.3679962158203,20.58099937438965 C132.75900268554688,21.104000091552734 132.8159942626953,21.87299919128418 132.44900512695312,22.51099967956543 C133.0469970703125,22.097999572753906 133.84500122070312,22.166000366210938 134.3489990234375,22.659000396728516 C134.41600036621094,22.72599983215332 134.47799682617188,22.79800033569336 134.5290069580078,22.87299919128418 C134.68499755859375,23.097999572753906 134.7729949951172,23.361000061035156 134.78900146484375,23.631999969482422 C134.81300354003906,23.98900032043457 134.71400451660156,24.358999252319336 134.4810028076172,24.66699981689453 C134.68499755859375,24.672000885009766 135.0570068359375,24.711999893188477 135.34100341796875,24.976999282836914 C135.45899963378906,25.086999893188477 135.5449981689453,25.2189998626709 135.6009979248047,25.36400032043457 C135.7989959716797,25.860000610351562 135.68099975585938,26.5 135.49099731445312,26.917999267578125z"></path></g><g opacity="1" transform="matrix(1,0,0,1,0,0)"><g opacity="1" transform="matrix(1,0,0,1,0,0)"><path fill="rgb(226,173,134)" fill-opacity="1" d=" M134.44500732421875,24.535999298095703 C133.76300048828125,24.739999771118164 133.1540069580078,25.141000747680664 132.69500732421875,25.684999465942383 C132.58399963378906,25.816999435424805 132.7740020751953,26.009000778198242 132.88600158691406,25.875999450683594 C133.3159942626953,25.365999221801758 133.8769989013672,24.988000869750977 134.51699829101562,24.797000885009766 C134.68299865722656,24.746999740600586 134.61199951171875,24.486000061035156 134.44500732421875,24.535999298095703 C134.44500732421875,24.535999298095703 134.44500732421875,24.535999298095703 134.44500732421875,24.535999298095703z"></path></g></g><g opacity="1" transform="matrix(1,0,0,1,0,0)"><path fill="rgb(226,173,134)" fill-opacity="1" d=" M132.41200256347656,22.236000061035156 C131.75799560546875,22.516000747680664 131.197998046875,22.982999801635742 130.8040008544922,23.576000213623047 C130.70799255371094,23.719999313354492 130.91900634765625,23.888999938964844 131.01499938964844,23.743999481201172 C131.38400268554688,23.18899917602539 131.8979949951172,22.749000549316406 132.51199340820312,22.486000061035156 C132.67100524902344,22.417999267578125 132.57200622558594,22.16699981689453 132.41200256347656,22.236000061035156 C132.41200256347656,22.236000061035156 132.41200256347656,22.236000061035156 132.41200256347656,22.236000061035156z"></path></g><g opacity="1" transform="matrix(1,0,0,1,0,0)"><path fill="rgb(226,173,134)" fill-opacity="1" d=" M129.89500427246094,20.124000549316406 C129.2779998779297,20.479999542236328 128.7790069580078,21.01099967956543 128.45799255371094,21.645999908447266 C128.3800048828125,21.799999237060547 128.61000061035156,21.94300079345703 128.68800354003906,21.788000106811523 C128.98899841308594,21.19300079345703 129.4459991455078,20.69499969482422 130.02499389648438,20.361000061035156 C130.1750030517578,20.27400016784668 130.04600524902344,20.03700065612793 129.89500427246094,20.124000549316406 C129.89500427246094,20.124000549316406 129.89500427246094,20.124000549316406 129.89500427246094,20.124000549316406z"></path></g><g opacity="1" transform="matrix(1,0,0,1,0,0)"><path fill="rgb(216,150,130)" fill-opacity="1" d=" M129.30499267578125,31.368000030517578 C128.41099548339844,31.948999404907227 127.31099700927734,32.11899948120117 126.28199768066406,31.843000411987305 C126.11399841308594,31.79800033569336 126.04199981689453,32.05799865722656 126.20999908447266,32.10300064086914 C127.30599975585938,32.39699935913086 128.48800659179688,32.220001220703125 129.4409942626953,31.60099983215332 C129.58599853515625,31.506999969482422 129.4510040283203,31.273000717163086 129.30499267578125,31.368000030517578 C129.30499267578125,31.368000030517578 129.30499267578125,31.368000030517578 129.30499267578125,31.368000030517578z"></path><path stroke-linecap="butt" stroke-linejoin="miter" fill-opacity="0" stroke-miterlimit="10" stroke="rgb(226,173,134)" stroke-opacity="1" stroke-width="0.072" d=" M129.30499267578125,31.368000030517578 C128.41099548339844,31.948999404907227 127.31099700927734,32.11899948120117 126.28199768066406,31.843000411987305 C126.11399841308594,31.79800033569336 126.04199981689453,32.05799865722656 126.20999908447266,32.10300064086914 C127.30599975585938,32.39699935913086 128.48800659179688,32.220001220703125 129.4409942626953,31.60099983215332 C129.58599853515625,31.506999969482422 129.4510040283203,31.273000717163086 129.30499267578125,31.368000030517578 C129.30499267578125,31.368000030517578 129.30499267578125,31.368000030517578 129.30499267578125,31.368000030517578z"></path></g></g><g transform="matrix(8.307976722717285,-0.18337224423885345,0.18337224423885345,8.307976722717285,-567.9679565429688,486.24334716796875)" opacity="1" style="display: block;"><g opacity="1" transform="matrix(1,0,0,1,0,0)"><path fill="rgb(255,177,61)" fill-opacity="1" d=" M99.83499908447266,21.732999801635742 C99.83499908447266,21.732999801635742 98.75700378417969,3.0309998989105225 104.23200225830078,3.4519999027252197 C109.70700073242188,3.872999906539917 110.54900360107422,6.400000095367432 112.65499877929688,19.03499984741211 C112.65499877929688,19.03499984741211 113.49700164794922,25.351999282836914 113.49700164794922,25.351999282836914 C113.49700164794922,25.351999282836914 107.71499633789062,40.34199905395508 100.44499969482422,40.303001403808594 C100.44499969482422,40.303001403808594 99.83499908447266,21.732999801635742 99.83499908447266,21.732999801635742z"></path></g><g opacity="1" transform="matrix(1,0,0,1,0,0)"><path fill="rgb(255,255,255)" fill-opacity="1" d=" M105.91600036621094,36.108001708984375 C105.81300354003906,36.108001708984375 105.70999908447266,36.07099914550781 105.62899780273438,35.994998931884766 C105.45899963378906,35.83599853515625 105.44999694824219,35.56999969482422 105.60800170898438,35.400001525878906 C108.08100128173828,32.75199890136719 112.18599700927734,26.483999252319336 112.84300231933594,25.472999572753906 C112.84300231933594,25.472999572753906 110.34500122070312,11.315999984741211 110.34500122070312,11.315999984741211 C110.30500030517578,11.086999893188477 110.45700073242188,10.869000434875488 110.68599700927734,10.82800006866455 C110.91899871826172,10.788000106811523 111.13400268554688,10.940999984741211 111.17400360107422,11.170000076293945 C111.17400360107422,11.170000076293945 113.7300033569336,25.652000427246094 113.7300033569336,25.652000427246094 C113.7300033569336,25.652000427246094 113.64099884033203,25.791000366210938 113.64099884033203,25.791000366210938 C113.45099639892578,26.086000442504883 108.95600128173828,33.04999923706055 106.2239990234375,35.974998474121094 C106.14099884033203,36.06399917602539 106.02899932861328,36.108001708984375 105.91600036621094,36.108001708984375z"></path></g></g><g transform="matrix(8.309999465942383,-0.0020709168165922165,0.0020709168165922165,8.309999465942383,-567.36083984375,467.4189758300781)" opacity="1" style="display: block;"><g opacity="1" transform="matrix(1,0,0,1,0,0)"><path fill="rgb(247,190,143)" fill-opacity="1" d=" M104.9489974975586,-0.6460000276565552 C104.9489974975586,-0.6460000276565552 104.89399719238281,-0.4020000100135803 104.89399719238281,-0.4020000100135803 C104.89399719238281,-0.4020000100135803 104.25199890136719,2.4070000648498535 104.25199890136719,2.4070000648498535 C104.25199890136719,2.4070000648498535 103.58599853515625,5.315999984741211 103.58599853515625,5.315999984741211 C103.58599853515625,5.315999984741211 97.5479965209961,4.557000160217285 96.87000274658203,2.631999969482422 C96.87000274658203,2.631999969482422 99.74199676513672,-3.1410000324249268 99.74199676513672,-3.1410000324249268 C99.74199676513672,-3.1410000324249268 104.9489974975586,-0.6460000276565552 104.9489974975586,-0.6460000276565552z"></path></g><g opacity="1" transform="matrix(1,0,0,1,0,0)"><g opacity="1" transform="matrix(1,0,0,1,0,0)"><g opacity="1" transform="matrix(1,0,0,1,0,0)"><path fill="rgb(216,150,130)" fill-opacity="1" d=" M104.89399719238281,-0.4020000100135803 C104.89399719238281,-0.4020000100135803 104.25199890136719,2.4070000648498535 104.25199890136719,2.4070000648498535 C102.11399841308594,0.8529999852180481 100.2699966430664,-2.4609999656677246 100.2699966430664,-2.4609999656677246 C100.2699966430664,-2.4609999656677246 104.89399719238281,-0.4020000100135803 104.89399719238281,-0.4020000100135803z"></path></g></g></g><g opacity="1" transform="matrix(1,0,0,1,0,0)"><g opacity="1" transform="matrix(1,0,0,1,0,0)"><g opacity="1" transform="matrix(1,0,0,1,0,0)"><path fill="rgb(247,190,143)" fill-opacity="1" d=" M110.73100280761719,-8.071000099182129 C110.68699645996094,-9.211999893188477 110.43299865722656,-9.305000305175781 110.20999908447266,-10.675999641418457 C109.87100219726562,-12.76200008392334 110.31199645996094,-13.46399974822998 109.68900299072266,-14.845000267028809 C109.43900299072266,-15.39900016784668 109.13400268554688,-15.805000305175781 108.91999816894531,-16.058000564575195 C107.5250015258789,-17.18899917602539 105.06300354003906,-18.76799964904785 102.03500366210938,-18.660999298095703 C101.75499725341797,-18.649999618530273 101.4729995727539,-18.62700080871582 101.19200134277344,-18.58799934387207 C100.33899688720703,-18.385000228881836 99.52899932861328,-18.03499984741211 98.8280029296875,-17.527999877929688 C94.83300018310547,-14.628999710083008 96.41100311279297,-8.006999969482422 97.6240005493164,-5.4120001792907715 C98.01599884033203,-4.572000026702881 98.43599700927734,-4.011000156402588 98.64299774169922,-3.752000093460083 C98.84500122070312,-3.5 99.052001953125,-3.2690000534057617 99.26799774169922,-3.055000066757202 C101.2959976196289,-1.0479999780654907 103.87799835205078,-0.6589999794960022 104.68299865722656,-0.5460000038146973 C105.98999786376953,-0.3630000054836273 106.70800018310547,-0.33399999141693115 107.53500366210938,-0.7179999947547913 C109.48899841308594,-1.625 110.0989990234375,-4.173999786376953 110.47000122070312,-5.7270002365112305 C110.75599670410156,-6.921000003814697 110.74299621582031,-7.760000228881836 110.73100280761719,-8.071000099182129z"></path></g></g></g><g opacity="1" transform="matrix(1,0,0,1,0,0)"><path fill="rgb(7,7,11)" fill-opacity="1" d=" M109.24099731445312,-11.506999969482422 C108.25800323486328,-7.908999919891357 109.89099884033203,-4.802000045776367 110.5270004272461,-2.944000005722046 C111.46800231933594,-0.19300000369548798 111.69499969482422,4.080999851226807 108.38600158691406,10.685999870300293 C107.94000244140625,11.088000297546387 107.33599853515625,11.559000015258789 106.56199645996094,11.98799991607666 C105.88899993896484,12.361000061035156 105.26100158691406,12.605999946594238 104.73899841308594,12.770000457763672 C104.9749984741211,11.258000373840332 105.21099853515625,9.744999885559082 105.4469985961914,8.232999801635742 C105.26200103759766,8.925000190734863 105.01000213623047,9.70199966430664 104.66500091552734,10.531000137329102 C104.35399627685547,11.277000427246094 104.02200317382812,11.937000274658203 103.6969985961914,12.508999824523926 C102.5260009765625,12.890000343322754 99.70800018310547,13.623000144958496 96.42400360107422,12.645999908447266 C90.97699737548828,11.024999618530273 88.79299926757812,6.050000190734863 88.48400115966797,5.313000202178955 C92.14199829101562,1.4709999561309814 93.43599700927734,-1.9869999885559082 93.91999816894531,-4.50600004196167 C94.32499694824219,-6.611000061035156 93.97100067138672,-7.060999870300293 94.56900024414062,-9.675999641418457 C95.21800231933594,-12.515999794006348 96.23300170898438,-16.95599937438965 99.61599731445312,-18.493999481201172 C101.0270004272461,-19.135000228881836 102.38300323486328,-19.05699920654297 103.87000274658203,-18.97800064086914 C105.54499816894531,-18.888999938964844 107.51300048828125,-18.784000396728516 108.9219970703125,-17.323999404907227 C110.0199966430664,-16.187000274658203 110.27200317382812,-14.753000259399414 110.34100341796875,-13.994999885559082 C110.0009994506836,-13.454000473022461 109.54199981689453,-12.607999801635742 109.24099731445312,-11.506999969482422z"></path></g><g opacity="1" transform="matrix(0.9983213543891907,-0.05791787430644035,0.05791787430644035,0.9983213543891907,1.0679092407226562,5.761817932128906)"><g opacity="1" transform="matrix(1,0,0,1,0,0)"><path fill="rgb(7,7,11)" fill-opacity="1" d=" M100.83100128173828,-16.14699935913086 C100.83100128173828,-16.14699935913086 100.04900360107422,-22.65999984741211 94.31800079345703,-22.65999984741211 C94.13500213623047,-22.65999984741211 93.15399932861328,-22.6200008392334 92.24700164794922,-21.958999633789062 C90.22699737548828,-20.488000869750977 89.64800262451172,-16.702999114990234 91.4530029296875,-14.583999633789062 C93.09300231933594,-12.659000396728516 95.88999938964844,-13.0600004196167 97.44400024414062,-13.281999588012695 C97.80699920654297,-13.333999633789062 100.91100311279297,-13.777000427246094 100.83100128173828,-16.14699935913086z"></path></g><g opacity="1" transform="matrix(1,0,0,1,0,0)"><g opacity="1" transform="matrix(1,0,0,1,0,0)"><g opacity="1" transform="matrix(1,0,0,1,0,0)"><g opacity="1" transform="matrix(1,0,0,1,0,0)"><path fill="rgb(7,7,11)" fill-opacity="1" d=" M93.86100006103516,-11.125 C93.08200073242188,-11.125 92.4209976196289,-11.321000099182129 91.88099670410156,-11.713000297546387 C89.63800048828125,-13.342000007629395 90.31500244140625,-17.708999633789062 90.34500122070312,-17.895000457763672 C90.34500122070312,-17.895000457763672 90.60199737548828,-17.854000091552734 90.60199737548828,-17.854000091552734 C90.59500122070312,-17.809999465942383 89.9209976196289,-13.458000183105469 92.03500366210938,-11.923999786376953 C93.27999877929688,-11.020000457763672 95.25599670410156,-11.253000259399414 97.90599822998047,-12.616000175476074 C97.90599822998047,-12.616000175476074 98.0250015258789,-12.383999824523926 98.0250015258789,-12.383999824523926 C96.39399719238281,-11.545000076293945 95.0009994506836,-11.125 93.86100006103516,-11.125z"></path></g></g></g></g></g></g><g transform="matrix(8.3100004196167,0,0,8.3100004196167,-564.5296630859375,467.7145080566406)" opacity="1" style="display: block;"><g opacity="1" transform="matrix(1,0,0,1,0,0)"><path fill="rgb(7,7,11)" fill-opacity="1" d=" M73.875,43.80699920654297 C100.41100311279297,43.9109992980957 126.94599914550781,43.770999908447266 153.48199462890625,43.768001556396484 C160.94500732421875,43.766998291015625 168.40899658203125,43.77799987792969 175.8719940185547,43.80699920654297 C176.0540008544922,43.80799865722656 176.0540008544922,43.525001525878906 175.8719940185547,43.52399826049805 C149.33599853515625,43.41999816894531 122.80000305175781,43.560001373291016 96.26399993896484,43.5629997253418 C88.8010025024414,43.56399917602539 81.33799743652344,43.553001403808594 73.875,43.52399826049805 C73.69300079345703,43.52299880981445 73.69300079345703,43.805999755859375 73.875,43.80699920654297 C73.875,43.80699920654297 73.875,43.80699920654297 73.875,43.80699920654297z"></path></g></g></g></svg>